media_type=video|key_frame=1|pkt_pts=60060|pkt_pts_time=2.002000|pkt_dts=60060|pkt_dts_time=2.002000|best_effort_timestamp=60060|best_effort_timestamp_time=2.002000|pkt_duration=N/A|pkt_duration_time=N/A|pkt_pos=747182|pkt_size=N/A|width=468|height=360|pix_fmt=yuv420p|sample_aspect_ratio=1:1|pict_type=I|coded_picture_number=0|display_picture_number=0|interlaced_frame=0|top_field_first=0|repeat_pict=0
media_type=video|key_frame=1|pkt_pts=606606|pkt_pts_time=20.220200|pkt_dts=606606|pkt_dts_time=20.220200|best_effort_timestamp=606606|best_effort_timestamp_time=20.220200|pkt_duration=N/A|pkt_duration_time=N/A|pkt_pos=1466777|pkt_size=N/A|width=468|height=360|pix_fmt=yuv420p|sample_aspect_ratio=1:1|pict_type=I|coded_picture_number=0|display_picture_number=0|interlaced_frame=0|top_field_first=0|repeat_pict=0
media_type=video|key_frame=1|pkt_pts=610610|pkt_pts_time=20.353667|pkt_dts=610610|pkt_dts_time=20.353667|best_effort_timestamp=610610|best_effort_timestamp_time=20.353667|pkt_duration=N/A|pkt_duration_time=N/A|pkt_pos=1471522|pkt_size=N/A|width=468|height=360|pix_fmt=yuv420p|sample_aspect_ratio=1:1|pict_type=I|coded_picture_number=0|display_picture_number=0|interlaced_frame=0|top_field_first=0|repeat_pict=0
media_type=video|key_frame=1|pkt_pts=615615|pkt_pts_time=20.520500|pkt_dts=615615|pkt_dts_time=20.520500|best_effort_timestamp=615615|best_effort_timestamp_time=20.520500|pkt_duration=N/A|pkt_duration_time=N/A|pkt_pos=1477711|pkt_size=N/A|width=468|height=360|pix_fmt=yuv420p|sample_aspect_ratio=1:1|pict_type=I|coded_picture_number=0|display_picture_number=0|interlaced_frame=0|top_field_first=0|repeat_pict=0
media_type=video|key_frame=1|pkt_pts=686686|pkt_pts_time=22.889533|pkt_dts=686686|pkt_dts_time=22.889533|best_effort_timestamp=686686|best_effort_timestamp_time=22.889533|pkt_duration=1001|pkt_duration_time=0.033367|pkt_pos=1621242|pkt_size=N/A|width=468|height=360|pix_fmt=yuv420p|sample_aspect_ratio=1:1|pict_type=I|coded_picture_number=0|display_picture_number=0|interlaced_frame=0|top_field_first=0|repeat_pict=0
media_type=video|key_frame=1|pkt_pts=746746|pkt_pts_time=24.891533|pkt_dts=746746|pkt_dts_time=24.891533|best_effort_timestamp=746746|best_effort_timestamp_time=24.891533|pkt_duration=1001|pkt_duration_time=0.033367|pkt_pos=1698298|pkt_size=N/A|width=468|height=360|pix_fmt=yuv420p|sample_aspect_ratio=1:1|pict_type=I|coded_picture_number=0|display_picture_number=0|interlaced_frame=0|top_field_first=0|repeat_pict=0
media_type=video|key_frame=1|pkt_pts=1079078|pkt_pts_time=35.969267|pkt_dts=1079078|pkt_dts_time=35.969267|best_effort_timestamp=1079078|best_effort_timestamp_time=35.969267|pkt_duration=1001|pkt_duration_time=0.033367|pkt_pos=2105388|pkt_size=N/A|width=468|height=360|pix_fmt=yuv420p|sample_aspect_ratio=1:1|pict_type=I|coded_picture_number=0|display_picture_number=0|interlaced_frame=0|top_field_first=0|repeat_pict=0
media_type=video|key_frame=1|pkt_pts=1139138|pkt_pts_time=37.971267|pkt_dts=1139138|pkt_dts_time=37.971267|best_effort_timestamp=1139138|best_effort_timestamp_time=37.971267|pkt_duration=1001|pkt_duration_time=0.033367|pkt_pos=2197356|pkt_size=N/A|width=468|height=360|pix_fmt=yuv420p|sample_aspect_ratio=1:1|pict_type=I|coded_picture_number=0|display_picture_number=0|interlaced_frame=0|top_field_first=0|repeat_pict=0
media_type=video|key_frame=1|pkt_pts=1199198|pkt_pts_time=39.973267|pkt_dts=1199198|pkt_dts_time=39.973267|best_effort_timestamp=1199198|best_effort_timestamp_time=39.973267|pkt_duration=1001|pkt_duration_time=0.033367|pkt_pos=2291506|pkt_size=N/A|width=468|height=360|pix_fmt=yuv420p|sample_aspect_ratio=1:1|pict_type=I|coded_picture_number=0|display_picture_number=0|interlaced_frame=0|top_field_first=0|repeat_pict=0
media_type=video|key_frame=1|pkt_pts=1259258|pkt_pts_time=41.975267|pkt_dts=1259258|pkt_dts_time=41.975267|best_effort_timestamp=1259258|best_effort_timestamp_time=41.975267|pkt_duration=1001|pkt_duration_time=0.033367|pkt_pos=2393684|pkt_size=N/A|width=468|height=360|pix_fmt=yuv420p|sample_aspect_ratio=1:1|pict_type=I|coded_picture_number=0|display_picture_number=0|interlaced_frame=0|top_field_first=0|repeat_pict=0
media_type=video|key_frame=1|pkt_pts=1319318|pkt_pts_time=43.977267|pkt_dts=1319318|pkt_dts_time=43.977267|best_effort_timestamp=1319318|best_effort_timestamp_time=43.977267|pkt_duration=1001|pkt_duration_time=0.033367|pkt_pos=2489922|pkt_size=N/A|width=468|height=360|pix_fmt=yuv420p|sample_aspect_ratio=1:1|pict_type=I|coded_picture_number=0|display_picture_number=0|interlaced_frame=0|top_field_first=0|repeat_pict=0
media_type=video|key_frame=1|pkt_pts=1351350|pkt_pts_time=45.045000|pkt_dts=1351350|pkt_dts_time=45.045000|best_effort_timestamp=1351350|best_effort_timestamp_time=45.045000|pkt_duration=1001|pkt_duration_time=0.033367|pkt_pos=2548581|pkt_size=N/A|width=468|height=360|pix_fmt=yuv420p|sample_aspect_ratio=1:1|pict_type=I|coded_picture_number=0|display_picture_number=0|interlaced_frame=0|top_field_first=0|repeat_pict=0
media_type=video|key_frame=1|pkt_pts=1626625|pkt_pts_time=54.220833|pkt_dts=1626625|pkt_dts_time=54.220833|best_effort_timestamp=1626625|best_effort_timestamp_time=54.220833|pkt_duration=1001|pkt_duration_time=0.033367|pkt_pos=2936867|pkt_size=N/A|width=468|height=360|pix_fmt=yuv420p|sample_aspect_ratio=1:1|pict_type=I|coded_picture_number=0|display_picture_number=0|interlaced_frame=0|top_field_first=0|repeat_pict=0
media_type=video|key_frame=1|pkt_pts=1639638|pkt_pts_time=54.654600|pkt_dts=1639638|pkt_dts_time=54.654600|best_effort_timestamp=1639638|best_effort_timestamp_time=54.654600|pkt_duration=1001|pkt_duration_time=0.033367|pkt_pos=2944189|pkt_size=N/A|width=468|height=360|pix_fmt=yuv420p|sample_aspect_ratio=1:1|pict_type=I|coded_picture_number=0|display_picture_number=0|interlaced_frame=0|top_field_first=0|repeat_pict=0
media_type=video|key_frame=1|pkt_pts=1641640|pkt_pts_time=54.721333|pkt_dts=1641640|pkt_dts_time=54.721333|best_effort_timestamp=1641640|best_effort_timestamp_time=54.721333|pkt_duration=1001|pkt_duration_time=0.033367|pkt_pos=2950807|pkt_size=N/A|width=468|height=360|pix_fmt=yuv420p|sample_aspect_ratio=1:1|pict_type=I|coded_picture_number=0|display_picture_number=0|interlaced_frame=0|top_field_first=0|repeat_pict=0
media_type=video|key_frame=1|pkt_pts=1646645|pkt_pts_time=54.888167|pkt_dts=1646645|pkt_dts_time=54.888167|best_effort_timestamp=1646645|best_effort_timestamp_time=54.888167|pkt_duration=1001|pkt_duration_time=0.033367|pkt_pos=2953408|pkt_size=N/A|width=468|height=360|pix_fmt=yuv420p|sample_aspect_ratio=1:1|pict_type=I|coded_picture_number=0|display_picture_number=0|interlaced_frame=0|top_field_first=0|repeat_pict=0
media_type=video|key_frame=1|pkt_pts=1647646|pkt_pts_time=54.921533|pkt_dts=1647646|pkt_dts_time=54.921533|best_effort_timestamp=1647646|best_effort_timestamp_time=54.921533|pkt_duration=1001|pkt_duration_time=0.033367|pkt_pos=2954309|pkt_size=N/A|width=468|height=360|pix_fmt=yuv420p|sample_aspect_ratio=1:1|pict_type=I|coded_picture_number=0|display_picture_number=0|interlaced_frame=0|top_field_first=0|repeat_pict=0
media_type=video|key_frame=1|pkt_pts=1648647|pkt_pts_time=54.954900|pkt_dts=1648647|pkt_dts_time=54.954900|best_effort_timestamp=1648647|best_effort_timestamp_time=54.954900|pkt_duration=1001|pkt_duration_time=0.033367|pkt_pos=2955296|pkt_size=N/A|width=468|height=360|pix_fmt=yuv420p|sample_aspect_ratio=1:1|pict_type=I|coded_picture_number=0|display_picture_number=0|interlaced_frame=0|top_field_first=0|repeat_pict=0
media_type=video|key_frame=1|pkt_pts=1650649|pkt_pts_time=55.021633|pkt_dts=1650649|pkt_dts_time=55.021633|best_effort_timestamp=1650649|best_effort_timestamp_time=55.021633|pkt_duration=1001|pkt_duration_time=0.033367|pkt_pos=2956422|pkt_size=N/A|width=468|height=360|pix_fmt=yuv420p|sample_aspect_ratio=1:1|pict_type=I|coded_picture_number=0|display_picture_number=0|interlaced_frame=0|top_field_first=0|repeat_pict=0
media_type=video|key_frame=1|pkt_pts=1711710|pkt_pts_time=57.057000|pkt_dts=1711710|pkt_dts_time=57.057000|best_effort_timestamp=1711710|best_effort_timestamp_time=57.057000|pkt_duration=1001|pkt_duration_time=0.033367|pkt_pos=3072150|pkt_size=N/A|width=468|height=360|pix_fmt=yuv420p|sample_aspect_ratio=1:1|pict_type=I|coded_picture_number=0|display_picture_number=0|interlaced_frame=0|top_field_first=0|repeat_pict=0
media_type=video|key_frame=1|pkt_pts=2822820|pkt_pts_time=94.094000|pkt_dts=2822820|pkt_dts_time=94.094000|best_effort_timestamp=2822820|best_effort_timestamp_time=94.094000|pkt_duration=1001|pkt_duration_time=0.033367|pkt_pos=4748732|pkt_size=N/A|width=468|height=360|pix_fmt=yuv420p|sample_aspect_ratio=1:1|pict_type=I|coded_picture_number=0|display_picture_number=0|interlaced_frame=0|top_field_first=0|repeat_pict=0
media_type=video|key_frame=1|pkt_pts=2942940|pkt_pts_time=98.098000|pkt_dts=2942940|pkt_dts_time=98.098000|best_effort_timestamp=2942940|best_effort_timestamp_time=98.098000|pkt_duration=1001|pkt_duration_time=0.033367|pkt_pos=4931708|pkt_size=N/A|width=468|height=360|pix_fmt=yuv420p|sample_aspect_ratio=1:1|pict_type=I|coded_picture_number=0|display_picture_number=0|interlaced_frame=0|top_field_first=0|repeat_pict=0
media_type=video|key_frame=1|pkt_pts=3003000|pkt_pts_time=100.100000|pkt_dts=3003000|pkt_dts_time=100.100000|best_effort_timestamp=3003000|best_effort_timestamp_time=100.100000|pkt_duration=1001|pkt_duration_time=0.033367|pkt_pos=5026079|pkt_size=N/A|width=468|height=360|pix_fmt=yuv420p|sample_aspect_ratio=1:1|pict_type=I|coded_picture_number=0|display_picture_number=0|interlaced_frame=0|top_field_first=0|repeat_pict=0
media_type=video|key_frame=1|pkt_pts=3333330|pkt_pts_time=111.111000|pkt_dts=3333330|pkt_dts_time=111.111000|best_effort_timestamp=3333330|best_effort_timestamp_time=111.111000|pkt_duration=1001|pkt_duration_time=0.033367|pkt_pos=5547070|pkt_size=N/A|width=468|height=360|pix_fmt=yuv420p|sample_aspect_ratio=1:1|pict_type=I|coded_picture_number=0|display_picture_number=0|interlaced_frame=0|top_field_first=0|repeat_pict=0
media_type=video|key_frame=1|pkt_pts=4114110|pkt_pts_time=137.137000|pkt_dts=4114110|pkt_dts_time=137.137000|best_effort_timestamp=4114110|best_effort_timestamp_time=137.137000|pkt_duration=1001|pkt_duration_time=0.033367|pkt_pos=6722613|pkt_size=N/A|width=468|height=360|pix_fmt=yuv420p|sample_aspect_ratio=1:1|pict_type=I|coded_picture_number=0|display_picture_number=0|interlaced_frame=0|top_field_first=0|repeat_pict=0
media_type=video|key_frame=1|pkt_pts=5003999|pkt_pts_time=166.799967|pkt_dts=5003999|pkt_dts_time=166.799967|best_effort_timestamp=5003999|best_effort_timestamp_time=166.799967|pkt_duration=1001|pkt_duration_time=0.033367|pkt_pos=8080070|pkt_size=N/A|width=468|height=360|pix_fmt=yuv420p|sample_aspect_ratio=1:1|pict_type=I|coded_picture_number=0|display_picture_number=0|interlaced_frame=0|top_field_first=0|repeat_pict=0
media_type=video|key_frame=1|pkt_pts=7117110|pkt_pts_time=237.237000|pkt_dts=7117110|pkt_dts_time=237.237000|best_effort_timestamp=7117110|best_effort_timestamp_time=237.237000|pkt_duration=1001|pkt_duration_time=0.033367|pkt_pos=11357258|pkt_size=N/A|width=468|height=360|pix_fmt=yuv420p|sample_aspect_ratio=1:1|pict_type=I|coded_picture_number=0|display_picture_number=0|interlaced_frame=0|top_field_first=0|repeat_pict=0
media_type=video|key_frame=1|pkt_pts=7177170|pkt_pts_time=239.239000|pkt_dts=7177170|pkt_dts_time=239.239000|best_effort_timestamp=7177170|best_effort_timestamp_time=239.239000|pkt_duration=1001|pkt_duration_time=0.033367|pkt_pos=11462398|pkt_size=N/A|width=468|height=360|pix_fmt=yuv420p|sample_aspect_ratio=1:1|pict_type=I|coded_picture_number=0|display_picture_number=0|interlaced_frame=0|top_field_first=0|repeat_pict=0
media_type=video|key_frame=1|pkt_pts=7526519|pkt_pts_time=250.883967|pkt_dts=7526519|pkt_dts_time=250.883967|best_effort_timestamp=7526519|best_effort_timestamp_time=250.883967|pkt_duration=1001|pkt_duration_time=0.033367|pkt_pos=12001652|pkt_size=N/A|width=468|height=360|pix_fmt=yuv420p|sample_aspect_ratio=1:1|pict_type=I|coded_picture_number=0|display_picture_number=0|interlaced_frame=0|top_field_first=0|repeat_pict=0
media_type=video|key_frame=1|pkt_pts=9169160|pkt_pts_time=305.638667|pkt_dts=9169160|pkt_dts_time=305.638667|best_effort_timestamp=9169160|best_effort_timestamp_time=305.638667|pkt_duration=1001|pkt_duration_time=0.033367|pkt_pos=14545461|pkt_size=N/A|width=468|height=360|pix_fmt=yuv420p|sample_aspect_ratio=1:1|pict_type=I|coded_picture_number=0|display_picture_number=0|interlaced_frame=0|top_field_first=0|repeat_pict=0
media_type=video|key_frame=1|pkt_pts=9910901|pkt_pts_time=330.363367|pkt_dts=9910901|pkt_dts_time=330.363367|best_effort_timestamp=9910901|best_effort_timestamp_time=330.363367|pkt_duration=1001|pkt_duration_time=0.033367|pkt_pos=15713979|pkt_size=N/A|width=468|height=360|pix_fmt=yuv420p|sample_aspect_ratio=1:1|pict_type=I|coded_picture_number=0|display_picture_number=0|interlaced_frame=0|top_field_first=0|repeat_pict=0
media_type=video|key_frame=1|pkt_pts=10660650|pkt_pts_time=355.355000|pkt_dts=10660650|pkt_dts_time=355.355000|best_effort_timestamp=10660650|best_effort_timestamp_time=355.355000|pkt_duration=1001|pkt_duration_time=0.033367|pkt_pos=16905834|pkt_size=N/A|width=468|height=360|pix_fmt=yuv420p|sample_aspect_ratio=1:1|pict_type=I|coded_picture_number=0|display_picture_number=0|interlaced_frame=0|top_field_first=0|repeat_pict=0
media_type=video|key_frame=1|pkt_pts=11548537|pkt_pts_time=384.951233|pkt_dts=11548537|pkt_dts_time=384.951233|best_effort_timestamp=11548537|best_effort_timestamp_time=384.951233|pkt_duration=1001|pkt_duration_time=0.033367|pkt_pos=18261871|pkt_size=N/A|width=468|height=360|pix_fmt=yuv420p|sample_aspect_ratio=1:1|pict_type=I|coded_picture_number=0|display_picture_number=0|interlaced_frame=0|top_field_first=0|repeat_pict=0
media_type=video|key_frame=1|pkt_pts=12062050|pkt_pts_time=402.068333|pkt_dts=12062050|pkt_dts_time=402.068333|best_effort_timestamp=12062050|best_effort_timestamp_time=402.068333|pkt_duration=1001|pkt_duration_time=0.033367|pkt_pos=19087066|pkt_size=N/A|width=468|height=360|pix_fmt=yuv420p|sample_aspect_ratio=1:1|pict_type=I|coded_picture_number=0|display_picture_number=0|interlaced_frame=0|top_field_first=0|repeat_pict=0
media_type=video|key_frame=1|pkt_pts=13387374|pkt_pts_time=446.245800|pkt_dts=13387374|pkt_dts_time=446.245800|best_effort_timestamp=13387374|best_effort_timestamp_time=446.245800|pkt_duration=1001|pkt_duration_time=0.033367|pkt_pos=21094478|pkt_size=N/A|width=468|height=360|pix_fmt=yuv420p|sample_aspect_ratio=1:1|pict_type=I|coded_picture_number=0|display_picture_number=0|interlaced_frame=0|top_field_first=0|repeat_pict=0
media_type=video|key_frame=1|pkt_pts=14264250|pkt_pts_time=475.475000|pkt_dts=14264250|pkt_dts_time=475.475000|best_effort_timestamp=14264250|best_effort_timestamp_time=475.475000|pkt_duration=1001|pkt_duration_time=0.033367|pkt_pos=22477286|pkt_size=N/A|width=468|height=360|pix_fmt=yuv420p|sample_aspect_ratio=1:1|pict_type=I|coded_picture_number=0|display_picture_number=0|interlaced_frame=0|top_field_first=0|repeat_pict=0
media_type=video|key_frame=1|pkt_pts=14561547|pkt_pts_time=485.384900|pkt_dts=14561547|pkt_dts_time=485.384900|best_effort_timestamp=14561547|best_effort_timestamp_time=485.384900|pkt_duration=1001|pkt_duration_time=0.033367|pkt_pos=22881571|pkt_size=N/A|width=468|height=360|pix_fmt=yuv420p|sample_aspect_ratio=1:1|pict_type=I|coded_picture_number=0|display_picture_number=0|interlaced_frame=0|top_field_first=0|repeat_pict=0
media_type=video|key_frame=1|pkt_pts=14861847|pkt_pts_time=495.394900|pkt_dts=14861847|pkt_dts_time=495.394900|best_effort_timestamp=14861847|best_effort_timestamp_time=495.394900|pkt_duration=1001|pkt_duration_time=0.033367|pkt_pos=23341707|pkt_size=N/A|width=468|height=360|pix_fmt=yuv420p|sample_aspect_ratio=1:1|pict_type=I|coded_picture_number=0|display_picture_number=0|interlaced_frame=0|top_field_first=0|repeat_pict=0
media_type=video|key_frame=1|pkt_pts=15435420|pkt_pts_time=514.514000|pkt_dts=15435420|pkt_dts_time=514.514000|best_effort_timestamp=15435420|best_effort_timestamp_time=514.514000|pkt_duration=1001|pkt_duration_time=0.033367|pkt_pos=24232790|pkt_size=N/A|width=468|height=360|pix_fmt=yuv420p|sample_aspect_ratio=1:1|pict_type=I|coded_picture_number=0|display_picture_number=0|interlaced_frame=0|top_field_first=0|repeat_pict=0
media_type=video|key_frame=1|pkt_pts=18189171|pkt_pts_time=606.305700|pkt_dts=18189171|pkt_dts_time=606.305700|best_effort_timestamp=18189171|best_effort_timestamp_time=606.305700|pkt_duration=1001|pkt_duration_time=0.033367|pkt_pos=28463458|pkt_size=N/A|width=468|height=360|pix_fmt=yuv420p|sample_aspect_ratio=1:1|pict_type=I|coded_picture_number=0|display_picture_number=0|interlaced_frame=0|top_field_first=0|repeat_pict=0
media_type=video|key_frame=1|pkt_pts=18429411|pkt_pts_time=614.313700|pkt_dts=18429411|pkt_dts_time=614.313700|best_effort_timestamp=18429411|best_effort_timestamp_time=614.313700|pkt_duration=1001|pkt_duration_time=0.033367|pkt_pos=28866569|pkt_size=N/A|width=468|height=360|pix_fmt=yuv420p|sample_aspect_ratio=1:1|pict_type=I|coded_picture_number=0|display_picture_number=0|interlaced_frame=0|top_field_first=0|repeat_pict=0
media_type=video|key_frame=1|pkt_pts=19099080|pkt_pts_time=636.636000|pkt_dts=19099080|pkt_dts_time=636.636000|best_effort_timestamp=19099080|best_effort_timestamp_time=636.636000|pkt_duration=1001|pkt_duration_time=0.033367|pkt_pos=29870147|pkt_size=N/A|width=468|height=360|pix_fmt=yuv420p|sample_aspect_ratio=1:1|pict_type=I|coded_picture_number=0|display_picture_number=0|interlaced_frame=0|top_field_first=0|repeat_pict=0
media_type=video|key_frame=1|pkt_pts=19159140|pkt_pts_time=638.638000|pkt_dts=19159140|pkt_dts_time=638.638000|best_effort_timestamp=19159140|best_effort_timestamp_time=638.638000|pkt_duration=1001|pkt_duration_time=0.033367|pkt_pos=29962026|pkt_size=N/A|width=468|height=360|pix_fmt=yuv420p|sample_aspect_ratio=1:1|pict_type=I|coded_picture_number=0|display_picture_number=0|interlaced_frame=0|top_field_first=0|repeat_pict=0
media_type=video|key_frame=1|pkt_pts=19219200|pkt_pts_time=640.640000|pkt_dts=19219200|pkt_dts_time=640.640000|best_effort_timestamp=19219200|best_effort_timestamp_time=640.640000|pkt_duration=1001|pkt_duration_time=0.033367|pkt_pos=30055903|pkt_size=N/A|width=468|height=360|pix_fmt=yuv420p|sample_aspect_ratio=1:1|pict_type=I|coded_picture_number=0|display_picture_number=0|interlaced_frame=0|top_field_first=0|repeat_pict=0
media_type=video|key_frame=1|pkt_pts=19279260|pkt_pts_time=642.642000|pkt_dts=19279260|pkt_dts_time=642.642000|best_effort_timestamp=19279260|best_effort_timestamp_time=642.642000|pkt_duration=1001|pkt_duration_time=0.033367|pkt_pos=30149802|pkt_size=N/A|width=468|height=360|pix_fmt=yuv420p|sample_aspect_ratio=1:1|pict_type=I|coded_picture_number=0|display_picture_number=0|interlaced_frame=0|top_field_first=0|repeat_pict=0
media_type=video|key_frame=1|pkt_pts=19638619|pkt_pts_time=654.620633|pkt_dts=19638619|pkt_dts_time=654.620633|best_effort_timestamp=19638619|best_effort_timestamp_time=654.620633|pkt_duration=1001|pkt_duration_time=0.033367|pkt_pos=30629106|pkt_size=N/A|width=468|height=360|pix_fmt=yuv420p|sample_aspect_ratio=1:1|pict_type=I|coded_picture_number=0|display_picture_number=0|interlaced_frame=0|top_field_first=0|repeat_pict=0
media_type=video|key_frame=1|pkt_pts=20291271|pkt_pts_time=676.375700|pkt_dts=20291271|pkt_dts_time=676.375700|best_effort_timestamp=20291271|best_effort_timestamp_time=676.375700|pkt_duration=1001|pkt_duration_time=0.033367|pkt_pos=31683351|pkt_size=N/A|width=468|height=360|pix_fmt=yuv420p|sample_aspect_ratio=1:1|pict_type=I|coded_picture_number=0|display_picture_number=0|interlaced_frame=0|top_field_first=0|repeat_pict=0
media_type=video|key_frame=1|pkt_pts=20385365|pkt_pts_time=679.512167|pkt_dts=20385365|pkt_dts_time=679.512167|best_effort_timestamp=20385365|best_effort_timestamp_time=679.512167|pkt_duration=1001|pkt_duration_time=0.033367|pkt_pos=31846810|pkt_size=N/A|width=468|height=360|pix_fmt=yuv420p|sample_aspect_ratio=1:1|pict_type=I|coded_picture_number=0|display_picture_number=0|interlaced_frame=0|top_field_first=0|repeat_pict=0
media_type=video|key_frame=1|pkt_pts=20659639|pkt_pts_time=688.654633|pkt_dts=20659639|pkt_dts_time=688.654633|best_effort_timestamp=20659639|best_effort_timestamp_time=688.654633|pkt_duration=1001|pkt_duration_time=0.033367|pkt_pos=32215816|pkt_size=N/A|width=468|height=360|pix_fmt=yuv420p|sample_aspect_ratio=1:1|pict_type=I|coded_picture_number=0|display_picture_number=0|interlaced_frame=0|top_field_first=0|repeat_pict=0
media_type=video|key_frame=1|pkt_pts=22094072|pkt_pts_time=736.469067|pkt_dts=22094072|pkt_dts_time=736.469067|best_effort_timestamp=22094072|best_effort_timestamp_time=736.469067|pkt_duration=1001|pkt_duration_time=0.033367|pkt_pos=34408653|pkt_size=N/A|width=468|height=360|pix_fmt=yuv420p|sample_aspect_ratio=1:1|pict_type=I|coded_picture_number=0|display_picture_number=0|interlaced_frame=0|top_field_first=0|repeat_pict=0
media_type=video|key_frame=1|pkt_pts=22344322|pkt_pts_time=744.810733|pkt_dts=22344322|pkt_dts_time=744.810733|best_effort_timestamp=22344322|best_effort_timestamp_time=744.810733|pkt_duration=1001|pkt_duration_time=0.033367|pkt_pos=34811099|pkt_size=N/A|width=468|height=360|pix_fmt=yuv420p|sample_aspect_ratio=1:1|pict_type=I|coded_picture_number=0|display_picture_number=0|interlaced_frame=0|top_field_first=0|repeat_pict=0
media_type=video|key_frame=1|pkt_pts=23093070|pkt_pts_time=769.769000|pkt_dts=23093070|pkt_dts_time=769.769000|best_effort_timestamp=23093070|best_effort_timestamp_time=769.769000|pkt_duration=1001|pkt_duration_time=0.033367|pkt_pos=35925379|pkt_size=N/A|width=468|height=360|pix_fmt=yuv420p|sample_aspect_ratio=1:1|pict_type=I|coded_picture_number=0|display_picture_number=0|interlaced_frame=0|top_field_first=0|repeat_pict=0
media_type=video|key_frame=1|pkt_pts=23153130|pkt_pts_time=771.771000|pkt_dts=23153130|pkt_dts_time=771.771000|best_effort_timestamp=23153130|best_effort_timestamp_time=771.771000|pkt_duration=1001|pkt_duration_time=0.033367|pkt_pos=36017050|pkt_size=N/A|width=468|height=360|pix_fmt=yuv420p|sample_aspect_ratio=1:1|pict_type=I|coded_picture_number=0|display_picture_number=0|interlaced_frame=0|top_field_first=0|repeat_pict=0
media_type=video|key_frame=1|pkt_pts=23213190|pkt_pts_time=773.773000|pkt_dts=23213190|pkt_dts_time=773.773000|best_effort_timestamp=23213190|best_effort_timestamp_time=773.773000|pkt_duration=1001|pkt_duration_time=0.033367|pkt_pos=36105312|pkt_size=N/A|width=468|height=360|pix_fmt=yuv420p|sample_aspect_ratio=1:1|pict_type=I|coded_picture_number=0|display_picture_number=0|interlaced_frame=0|top_field_first=0|repeat_pict=0
media_type=video|key_frame=1|pkt_pts=23690667|pkt_pts_time=789.688900|pkt_dts=23690667|pkt_dts_time=789.688900|best_effort_timestamp=23690667|best_effort_timestamp_time=789.688900|pkt_duration=1001|pkt_duration_time=0.033367|pkt_pos=36878010|pkt_size=N/A|width=468|height=360|pix_fmt=yuv420p|sample_aspect_ratio=1:1|pict_type=I|coded_picture_number=0|display_picture_number=0|interlaced_frame=0|top_field_first=0|repeat_pict=0
media_type=video|key_frame=1|pkt_pts=24540516|pkt_pts_time=818.017200|pkt_dts=24540516|pkt_dts_time=818.017200|best_effort_timestamp=24540516|best_effort_timestamp_time=818.017200|pkt_duration=1001|pkt_duration_time=0.033367|pkt_pos=38173840|pkt_size=N/A|width=468|height=360|pix_fmt=yuv420p|sample_aspect_ratio=1:1|pict_type=I|coded_picture_number=0|display_picture_number=0|interlaced_frame=0|top_field_first=0|repeat_pict=0
media_type=video|key_frame=1|pkt_pts=25090065|pkt_pts_time=836.335500|pkt_dts=25090065|pkt_dts_time=836.335500|best_effort_timestamp=25090065|best_effort_timestamp_time=836.335500|pkt_duration=1001|pkt_duration_time=0.033367|pkt_pos=39056019|pkt_size=N/A|width=468|height=360|pix_fmt=yuv420p|sample_aspect_ratio=1:1|pict_type=I|coded_picture_number=0|display_picture_number=0|interlaced_frame=0|top_field_first=0|repeat_pict=0
media_type=video|key_frame=1|pkt_pts=26593567|pkt_pts_time=886.452233|pkt_dts=26593567|pkt_dts_time=886.452233|best_effort_timestamp=26593567|best_effort_timestamp_time=886.452233|pkt_duration=1001|pkt_duration_time=0.033367|pkt_pos=41386501|pkt_size=N/A|width=468|height=360|pix_fmt=yuv420p|sample_aspect_ratio=1:1|pict_type=I|coded_picture_number=0|display_picture_number=0|interlaced_frame=0|top_field_first=0|repeat_pict=0
media_type=video|key_frame=1|pkt_pts=27987960|pkt_pts_time=932.932000|pkt_dts=27987960|pkt_dts_time=932.932000|best_effort_timestamp=27987960|best_effort_timestamp_time=932.932000|pkt_duration=1001|pkt_duration_time=0.033367|pkt_pos=43552651|pkt_size=N/A|width=468|height=360|pix_fmt=yuv420p|sample_aspect_ratio=1:1|pict_type=I|coded_picture_number=0|display_picture_number=0|interlaced_frame=0|top_field_first=0|repeat_pict=0
media_type=video|key_frame=1|pkt_pts=28261233|pkt_pts_time=942.041100|pkt_dts=28261233|pkt_dts_time=942.041100|best_effort_timestamp=28261233|best_effort_timestamp_time=942.041100|pkt_duration=1001|pkt_duration_time=0.033367|pkt_pos=43999503|pkt_size=N/A|width=468|height=360|pix_fmt=yuv420p|sample_aspect_ratio=1:1|pict_type=I|coded_picture_number=0|display_picture_number=0|interlaced_frame=0|top_field_first=0|repeat_pict=0
media_type=video|key_frame=1|pkt_pts=28948920|pkt_pts_time=964.964000|pkt_dts=28948920|pkt_dts_time=964.964000|best_effort_timestamp=28948920|best_effort_timestamp_time=964.964000|pkt_duration=1001|pkt_duration_time=0.033367|pkt_pos=45046130|pkt_size=N/A|width=468|height=360|pix_fmt=yuv420p|sample_aspect_ratio=1:1|pict_type=I|coded_picture_number=0|display_picture_number=0|interlaced_frame=0|top_field_first=0|repeat_pict=0
media_type=video|key_frame=1|pkt_pts=31620589|pkt_pts_time=1054.019633|pkt_dts=31620589|pkt_dts_time=1054.019633|best_effort_timestamp=31620589|best_effort_timestamp_time=1054.019633|pkt_duration=1001|pkt_duration_time=0.033367|pkt_pos=49161090|pkt_size=N/A|width=468|height=360|pix_fmt=yuv420p|sample_aspect_ratio=1:1|pict_type=I|coded_picture_number=0|display_picture_number=0|interlaced_frame=0|top_field_first=0|repeat_pict=0
media_type=video|key_frame=1|pkt_pts=32188156|pkt_pts_time=1072.938533|pkt_dts=32188156|pkt_dts_time=1072.938533|best_effort_timestamp=32188156|best_effort_timestamp_time=1072.938533|pkt_duration=1001|pkt_duration_time=0.033367|pkt_pos=50125473|pkt_size=N/A|width=468|height=360|pix_fmt=yuv420p|sample_aspect_ratio=1:1|pict_type=I|coded_picture_number=0|display_picture_number=0|interlaced_frame=0|top_field_first=0|repeat_pict=0
media_type=video|key_frame=1|pkt_pts=33416383|pkt_pts_time=1113.879433|pkt_dts=33416383|pkt_dts_time=1113.879433|best_effort_timestamp=33416383|best_effort_timestamp_time=1113.879433|pkt_duration=1001|pkt_duration_time=0.033367|pkt_pos=51974351|pkt_size=N/A|width=468|height=360|pix_fmt=yuv420p|sample_aspect_ratio=1:1|pict_type=I|coded_picture_number=0|display_picture_number=0|interlaced_frame=0|top_field_first=0|repeat_pict=0
media_type=video|key_frame=1|pkt_pts=33775742|pkt_pts_time=1125.858067|pkt_dts=33775742|pkt_dts_time=1125.858067|best_effort_timestamp=33775742|best_effort_timestamp_time=1125.858067|pkt_duration=1001|pkt_duration_time=0.033367|pkt_pos=52523086|pkt_size=N/A|width=468|height=360|pix_fmt=yuv420p|sample_aspect_ratio=1:1|pict_type=I|coded_picture_number=0|display_picture_number=0|interlaced_frame=0|top_field_first=0|repeat_pict=0
media_type=video|key_frame=1|pkt_pts=34744710|pkt_pts_time=1158.157000|pkt_dts=34744710|pkt_dts_time=1158.157000|best_effort_timestamp=34744710|best_effort_timestamp_time=1158.157000|pkt_duration=1001|pkt_duration_time=0.033367|pkt_pos=54040399|pkt_size=N/A|width=468|height=360|pix_fmt=yuv420p|sample_aspect_ratio=1:1|pict_type=I|coded_picture_number=0|display_picture_number=0|interlaced_frame=0|top_field_first=0|repeat_pict=0
media_type=video|key_frame=1|pkt_pts=36546510|pkt_pts_time=1218.217000|pkt_dts=36546510|pkt_dts_time=1218.217000|best_effort_timestamp=36546510|best_effort_timestamp_time=1218.217000|pkt_duration=1001|pkt_duration_time=0.033367|pkt_pos=56799306|pkt_size=N/A|width=468|height=360|pix_fmt=yuv420p|sample_aspect_ratio=1:1|pict_type=I|coded_picture_number=0|display_picture_number=0|interlaced_frame=0|top_field_first=0|repeat_pict=0
media_type=video|key_frame=1|pkt_pts=36936900|pkt_pts_time=1231.230000|pkt_dts=36936900|pkt_dts_time=1231.230000|best_effort_timestamp=36936900|best_effort_timestamp_time=1231.230000|pkt_duration=1001|pkt_duration_time=0.033367|pkt_pos=57393911|pkt_size=N/A|width=468|height=360|pix_fmt=yuv420p|sample_aspect_ratio=1:1|pict_type=I|coded_picture_number=0|display_picture_number=0|interlaced_frame=0|top_field_first=0|repeat_pict=0
media_type=video|key_frame=1|pkt_pts=37177140|pkt_pts_time=1239.238000|pkt_dts=37177140|pkt_dts_time=1239.238000|best_effort_timestamp=37177140|best_effort_timestamp_time=1239.238000|pkt_duration=1001|pkt_duration_time=0.033367|pkt_pos=57763531|pkt_size=N/A|width=468|height=360|pix_fmt=yuv420p|sample_aspect_ratio=1:1|pict_type=I|coded_picture_number=0|display_picture_number=0|interlaced_frame=0|top_field_first=0|repeat_pict=0
media_type=video|key_frame=1|pkt_pts=37237200|pkt_pts_time=1241.240000|pkt_dts=37237200|pkt_dts_time=1241.240000|best_effort_timestamp=37237200|best_effort_timestamp_time=1241.240000|pkt_duration=1001|pkt_duration_time=0.033367|pkt_pos=57856277|pkt_size=N/A|width=468|height=360|pix_fmt=yuv420p|sample_aspect_ratio=1:1|pict_type=I|coded_picture_number=0|display_picture_number=0|interlaced_frame=0|top_field_first=0|repeat_pict=0
media_type=video|key_frame=1|pkt_pts=39015977|pkt_pts_time=1300.532567|pkt_dts=39015977|pkt_dts_time=1300.532567|best_effort_timestamp=39015977|best_effort_timestamp_time=1300.532567|pkt_duration=1001|pkt_duration_time=0.033367|pkt_pos=60601105|pkt_size=N/A|width=468|height=360|pix_fmt=yuv420p|sample_aspect_ratio=1:1|pict_type=I|coded_picture_number=0|display_picture_number=0|interlaced_frame=0|top_field_first=0|repeat_pict=0
media_type=video|key_frame=1|pkt_pts=41561520|pkt_pts_time=1385.384000|pkt_dts=41561520|pkt_dts_time=1385.384000|best_effort_timestamp=41561520|best_effort_timestamp_time=1385.384000|pkt_duration=1001|pkt_duration_time=0.033367|pkt_pos=64499573|pkt_size=N/A|width=468|height=360|pix_fmt=yuv420p|sample_aspect_ratio=1:1|pict_type=I|coded_picture_number=0|display_picture_number=0|interlaced_frame=0|top_field_first=0|repeat_pict=0
media_type=video|key_frame=1|pkt_pts=42011970|pkt_pts_time=1400.399000|pkt_dts=42011970|pkt_dts_time=1400.399000|best_effort_timestamp=42011970|best_effort_timestamp_time=1400.399000|pkt_duration=1001|pkt_duration_time=0.033367|pkt_pos=65215198|pkt_size=N/A|width=468|height=360|pix_fmt=yuv420p|sample_aspect_ratio=1:1|pict_type=I|coded_picture_number=0|display_picture_number=0|interlaced_frame=0|top_field_first=0|repeat_pict=0
media_type=video|key_frame=1|pkt_pts=44051007|pkt_pts_time=1468.366900|pkt_dts=44051007|pkt_dts_time=1468.366900|best_effort_timestamp=44051007|best_effort_timestamp_time=1468.366900|pkt_duration=1001|pkt_duration_time=0.033367|pkt_pos=68408075|pkt_size=N/A|width=468|height=360|pix_fmt=yuv420p|sample_aspect_ratio=1:1|pict_type=I|coded_picture_number=0|display_picture_number=0|interlaced_frame=0|top_field_first=0|repeat_pict=0
media_type=video|key_frame=1|pkt_pts=44111067|pkt_pts_time=1470.368900|pkt_dts=44111067|pkt_dts_time=1470.368900|best_effort_timestamp=44111067|best_effort_timestamp_time=1470.368900|pkt_duration=1001|pkt_duration_time=0.033367|pkt_pos=68508907|pkt_size=N/A|width=468|height=360|pix_fmt=yuv420p|sample_aspect_ratio=1:1|pict_type=I|coded_picture_number=0|display_picture_number=0|interlaced_frame=0|top_field_first=0|repeat_pict=0
media_type=video|key_frame=1|pkt_pts=44910866|pkt_pts_time=1497.028867|pkt_dts=44910866|pkt_dts_time=1497.028867|best_effort_timestamp=44910866|best_effort_timestamp_time=1497.028867|pkt_duration=1001|pkt_duration_time=0.033367|pkt_pos=69684767|pkt_size=N/A|width=468|height=360|pix_fmt=yuv420p|sample_aspect_ratio=1:1|pict_type=I|coded_picture_number=0|display_picture_number=0|interlaced_frame=0|top_field_first=0|repeat_pict=0
media_type=video|key_frame=1|pkt_pts=45105060|pkt_pts_time=1503.502000|pkt_dts=45105060|pkt_dts_time=1503.502000|best_effort_timestamp=45105060|best_effort_timestamp_time=1503.502000|pkt_duration=1001|pkt_duration_time=0.033367|pkt_pos=70048535|pkt_size=N/A|width=468|height=360|pix_fmt=yuv420p|sample_aspect_ratio=1:1|pict_type=I|coded_picture_number=0|display_picture_number=0|interlaced_frame=0|top_field_first=0|repeat_pict=0
media_type=video|key_frame=1|pkt_pts=46325279|pkt_pts_time=1544.175967|pkt_dts=46325279|pkt_dts_time=1544.175967|best_effort_timestamp=46325279|best_effort_timestamp_time=1544.175967|pkt_duration=1001|pkt_duration_time=0.033367|pkt_pos=71907889|pkt_size=N/A|width=468|height=360|pix_fmt=yuv420p|sample_aspect_ratio=1:1|pict_type=I|coded_picture_number=0|display_picture_number=0|interlaced_frame=0|top_field_first=0|repeat_pict=0
media_type=video|key_frame=1|pkt_pts=46636590|pkt_pts_time=1554.553000|pkt_dts=46636590|pkt_dts_time=1554.553000|best_effort_timestamp=46636590|best_effort_timestamp_time=1554.553000|pkt_duration=1001|pkt_duration_time=0.033367|pkt_pos=72380412|pkt_size=N/A|width=468|height=360|pix_fmt=yuv420p|sample_aspect_ratio=1:1|pict_type=I|coded_picture_number=0|display_picture_number=0|interlaced_frame=0|top_field_first=0|repeat_pict=0
media_type=video|key_frame=1|pkt_pts=47207160|pkt_pts_time=1573.572000|pkt_dts=47207160|pkt_dts_time=1573.572000|best_effort_timestamp=47207160|best_effort_timestamp_time=1573.572000|pkt_duration=1001|pkt_duration_time=0.033367|pkt_pos=73233466|pkt_size=N/A|width=468|height=360|pix_fmt=yuv420p|sample_aspect_ratio=1:1|pict_type=I|coded_picture_number=0|display_picture_number=0|interlaced_frame=0|top_field_first=0|repeat_pict=0
media_type=video|key_frame=1|pkt_pts=49049000|pkt_pts_time=1634.966667|pkt_dts=49049000|pkt_dts_time=1634.966667|best_effort_timestamp=49049000|best_effort_timestamp_time=1634.966667|pkt_duration=1001|pkt_duration_time=0.033367|pkt_pos=76070109|pkt_size=N/A|width=468|height=360|pix_fmt=yuv420p|sample_aspect_ratio=1:1|pict_type=I|coded_picture_number=0|display_picture_number=0|interlaced_frame=0|top_field_first=0|repeat_pict=0
media_type=video|key_frame=1|pkt_pts=49498449|pkt_pts_time=1649.948300|pkt_dts=49498449|pkt_dts_time=1649.948300|best_effort_timestamp=49498449|best_effort_timestamp_time=1649.948300|pkt_duration=1001|pkt_duration_time=0.033367|pkt_pos=76775791|pkt_size=N/A|width=468|height=360|pix_fmt=yuv420p|sample_aspect_ratio=1:1|pict_type=I|coded_picture_number=0|display_picture_number=0|interlaced_frame=0|top_field_first=0|repeat_pict=0
media_type=video|key_frame=1|pkt_pts=52251199|pkt_pts_time=1741.706633|pkt_dts=52251199|pkt_dts_time=1741.706633|best_effort_timestamp=52251199|best_effort_timestamp_time=1741.706633|pkt_duration=1001|pkt_duration_time=0.033367|pkt_pos=81067264|pkt_size=N/A|width=468|height=360|pix_fmt=yuv420p|sample_aspect_ratio=1:1|pict_type=I|coded_picture_number=0|display_picture_number=0|interlaced_frame=0|top_field_first=0|repeat_pict=0
media_type=video|key_frame=1|pkt_pts=52432380|pkt_pts_time=1747.746000|pkt_dts=52432380|pkt_dts_time=1747.746000|best_effort_timestamp=52432380|best_effort_timestamp_time=1747.746000|pkt_duration=1001|pkt_duration_time=0.033367|pkt_pos=81346946|pkt_size=N/A|width=468|height=360|pix_fmt=yuv420p|sample_aspect_ratio=1:1|pict_type=I|coded_picture_number=0|display_picture_number=0|interlaced_frame=0|top_field_first=0|repeat_pict=0
media_type=video|key_frame=1|pkt_pts=53002950|pkt_pts_time=1766.765000|pkt_dts=53002950|pkt_dts_time=1766.765000|best_effort_timestamp=53002950|best_effort_timestamp_time=1766.765000|pkt_duration=1001|pkt_duration_time=0.033367|pkt_pos=82195997|pkt_size=N/A|width=468|height=360|pix_fmt=yuv420p|sample_aspect_ratio=1:1|pict_type=I|coded_picture_number=0|display_picture_number=0|interlaced_frame=0|top_field_first=0|repeat_pict=0
media_type=video|key_frame=1|pkt_pts=53063010|pkt_pts_time=1768.767000|pkt_dts=53063010|pkt_dts_time=1768.767000|best_effort_timestamp=53063010|best_effort_timestamp_time=1768.767000|pkt_duration=1001|pkt_duration_time=0.033367|pkt_pos=82282628|pkt_size=N/A|width=468|height=360|pix_fmt=yuv420p|sample_aspect_ratio=1:1|pict_type=I|coded_picture_number=0|display_picture_number=0|interlaced_frame=0|top_field_first=0|repeat_pict=0
media_type=video|key_frame=1|pkt_pts=53123070|pkt_pts_time=1770.769000|pkt_dts=53123070|pkt_dts_time=1770.769000|best_effort_timestamp=53123070|best_effort_timestamp_time=1770.769000|pkt_duration=1001|pkt_duration_time=0.033367|pkt_pos=82370945|pkt_size=N/A|width=468|height=360|pix_fmt=yuv420p|sample_aspect_ratio=1:1|pict_type=I|coded_picture_number=0|display_picture_number=0|interlaced_frame=0|top_field_first=0|repeat_pict=0
media_type=video|key_frame=1|pkt_pts=53213160|pkt_pts_time=1773.772000|pkt_dts=53213160|pkt_dts_time=1773.772000|best_effort_timestamp=53213160|best_effort_timestamp_time=1773.772000|pkt_duration=1001|pkt_duration_time=0.033367|pkt_pos=82523161|pkt_size=N/A|width=468|height=360|pix_fmt=yuv420p|sample_aspect_ratio=1:1|pict_type=I|coded_picture_number=0|display_picture_number=0|interlaced_frame=0|top_field_first=0|repeat_pict=0
media_type=video|key_frame=1|pkt_pts=53356303|pkt_pts_time=1778.543433|pkt_dts=53356303|pkt_dts_time=1778.543433|best_effort_timestamp=53356303|best_effort_timestamp_time=1778.543433|pkt_duration=1001|pkt_duration_time=0.033367|pkt_pos=82708196|pkt_size=N/A|width=468|height=360|pix_fmt=yuv420p|sample_aspect_ratio=1:1|pict_type=I|coded_picture_number=0|display_picture_number=0|interlaced_frame=0|top_field_first=0|repeat_pict=0
media_type=video|key_frame=1|pkt_pts=53513460|pkt_pts_time=1783.782000|pkt_dts=53513460|pkt_dts_time=1783.782000|best_effort_timestamp=53513460|best_effort_timestamp_time=1783.782000|pkt_duration=1001|pkt_duration_time=0.033367|pkt_pos=82940421|pkt_size=N/A|width=468|height=360|pix_fmt=yuv420p|sample_aspect_ratio=1:1|pict_type=I|coded_picture_number=0|display_picture_number=0|interlaced_frame=0|top_field_first=0|repeat_pict=0
media_type=video|key_frame=1|pkt_pts=53951898|pkt_pts_time=1798.396600|pkt_dts=53951898|pkt_dts_time=1798.396600|best_effort_timestamp=53951898|best_effort_timestamp_time=1798.396600|pkt_duration=1001|pkt_duration_time=0.033367|pkt_pos=83635171|pkt_size=N/A|width=468|height=360|pix_fmt=yuv420p|sample_aspect_ratio=1:1|pict_type=I|coded_picture_number=0|display_picture_number=0|interlaced_frame=0|top_field_first=0|repeat_pict=0
media_type=video|key_frame=1|pkt_pts=54205151|pkt_pts_time=1806.838367|pkt_dts=54205151|pkt_dts_time=1806.838367|best_effort_timestamp=54205151|best_effort_timestamp_time=1806.838367|pkt_duration=1001|pkt_duration_time=0.033367|pkt_pos=83966440|pkt_size=N/A|width=468|height=360|pix_fmt=yuv420p|sample_aspect_ratio=1:1|pict_type=I|coded_picture_number=0|display_picture_number=0|interlaced_frame=0|top_field_first=0|repeat_pict=0
media_type=video|key_frame=1|pkt_pts=54385331|pkt_pts_time=1812.844367|pkt_dts=54385331|pkt_dts_time=1812.844367|best_effort_timestamp=54385331|best_effort_timestamp_time=1812.844367|pkt_duration=1001|pkt_duration_time=0.033367|pkt_pos=84284094|pkt_size=N/A|width=468|height=360|pix_fmt=yuv420p|sample_aspect_ratio=1:1|pict_type=I|coded_picture_number=0|display_picture_number=0|interlaced_frame=0|top_field_first=0|repeat_pict=0
media_type=video|key_frame=1|pkt_pts=55468413|pkt_pts_time=1848.947100|pkt_dts=55468413|pkt_dts_time=1848.947100|best_effort_timestamp=55468413|best_effort_timestamp_time=1848.947100|pkt_duration=1001|pkt_duration_time=0.033367|pkt_pos=85878701|pkt_size=N/A|width=468|height=360|pix_fmt=yuv420p|sample_aspect_ratio=1:1|pict_type=I|coded_picture_number=0|display_picture_number=0|interlaced_frame=0|top_field_first=0|repeat_pict=0
media_type=video|key_frame=1|pkt_pts=55525470|pkt_pts_time=1850.849000|pkt_dts=55525470|pkt_dts_time=1850.849000|best_effort_timestamp=55525470|best_effort_timestamp_time=1850.849000|pkt_duration=1001|pkt_duration_time=0.033367|pkt_pos=85989952|pkt_size=N/A|width=468|height=360|pix_fmt=yuv420p|sample_aspect_ratio=1:1|pict_type=I|coded_picture_number=0|display_picture_number=0|interlaced_frame=0|top_field_first=0|repeat_pict=0
media_type=video|key_frame=1|pkt_pts=55585530|pkt_pts_time=1852.851000|pkt_dts=55585530|pkt_dts_time=1852.851000|best_effort_timestamp=55585530|best_effort_timestamp_time=1852.851000|pkt_duration=1001|pkt_duration_time=0.033367|pkt_pos=86101029|pkt_size=N/A|width=468|height=360|pix_fmt=yuv420p|sample_aspect_ratio=1:1|pict_type=I|coded_picture_number=0|display_picture_number=0|interlaced_frame=0|top_field_first=0|repeat_pict=0
media_type=video|key_frame=1|pkt_pts=55705650|pkt_pts_time=1856.855000|pkt_dts=55705650|pkt_dts_time=1856.855000|best_effort_timestamp=55705650|best_effort_timestamp_time=1856.855000|pkt_duration=1001|pkt_duration_time=0.033367|pkt_pos=86285608|pkt_size=N/A|width=468|height=360|pix_fmt=yuv420p|sample_aspect_ratio=1:1|pict_type=I|coded_picture_number=0|display_picture_number=0|interlaced_frame=0|top_field_first=0|repeat_pict=0
media_type=video|key_frame=1|pkt_pts=56636580|pkt_pts_time=1887.886000|pkt_dts=56636580|pkt_dts_time=1887.886000|best_effort_timestamp=56636580|best_effort_timestamp_time=1887.886000|pkt_duration=1001|pkt_duration_time=0.033367|pkt_pos=87532573|pkt_size=N/A|width=468|height=360|pix_fmt=yuv420p|sample_aspect_ratio=1:1|pict_type=I|coded_picture_number=0|display_picture_number=0|interlaced_frame=0|top_field_first=0|repeat_pict=0
media_type=video|key_frame=1|pkt_pts=56756700|pkt_pts_time=1891.890000|pkt_dts=56756700|pkt_dts_time=1891.890000|best_effort_timestamp=56756700|best_effort_timestamp_time=1891.890000|pkt_duration=1001|pkt_duration_time=0.033367|pkt_pos=87799464|pkt_size=N/A|width=468|height=360|pix_fmt=yuv420p|sample_aspect_ratio=1:1|pict_type=I|coded_picture_number=0|display_picture_number=0|interlaced_frame=0|top_field_first=0|repeat_pict=0
media_type=video|key_frame=1|pkt_pts=56816760|pkt_pts_time=1893.892000|pkt_dts=56816760|pkt_dts_time=1893.892000|best_effort_timestamp=56816760|best_effort_timestamp_time=1893.892000|pkt_duration=1001|pkt_duration_time=0.033367|pkt_pos=87954834|pkt_size=N/A|width=468|height=360|pix_fmt=yuv420p|sample_aspect_ratio=1:1|pict_type=I|coded_picture_number=0|display_picture_number=0|interlaced_frame=0|top_field_first=0|repeat_pict=0
media_type=video|key_frame=1|pkt_pts=56925869|pkt_pts_time=1897.528967|pkt_dts=56925869|pkt_dts_time=1897.528967|best_effort_timestamp=56925869|best_effort_timestamp_time=1897.528967|pkt_duration=1001|pkt_duration_time=0.033367|pkt_pos=88182874|pkt_size=N/A|width=468|height=360|pix_fmt=yuv420p|sample_aspect_ratio=1:1|pict_type=I|coded_picture_number=0|display_picture_number=0|interlaced_frame=0|top_field_first=0|repeat_pict=0
media_type=video|key_frame=1|pkt_pts=57503446|pkt_pts_time=1916.781533|pkt_dts=57503446|pkt_dts_time=1916.781533|best_effort_timestamp=57503446|best_effort_timestamp_time=1916.781533|pkt_duration=1001|pkt_duration_time=0.033367|pkt_pos=88911062|pkt_size=N/A|width=468|height=360|pix_fmt=yuv420p|sample_aspect_ratio=1:1|pict_type=I|coded_picture_number=0|display_picture_number=0|interlaced_frame=0|top_field_first=0|repeat_pict=0
media_type=video|key_frame=1|pkt_pts=57623566|pkt_pts_time=1920.785533|pkt_dts=57623566|pkt_dts_time=1920.785533|best_effort_timestamp=57623566|best_effort_timestamp_time=1920.785533|pkt_duration=1001|pkt_duration_time=0.033367|pkt_pos=89119194|pkt_size=N/A|width=468|height=360|pix_fmt=yuv420p|sample_aspect_ratio=1:1|pict_type=I|coded_picture_number=0|display_picture_number=0|interlaced_frame=0|top_field_first=0|repeat_pict=0
media_type=video|key_frame=1|pkt_pts=57708651|pkt_pts_time=1923.621700|pkt_dts=57708651|pkt_dts_time=1923.621700|best_effort_timestamp=57708651|best_effort_timestamp_time=1923.621700|pkt_duration=1001|pkt_duration_time=0.033367|pkt_pos=89280547|pkt_size=N/A|width=468|height=360|pix_fmt=yuv420p|sample_aspect_ratio=1:1|pict_type=I|coded_picture_number=0|display_picture_number=0|interlaced_frame=0|top_field_first=0|repeat_pict=0
media_type=video|key_frame=1|pkt_pts=58514456|pkt_pts_time=1950.481867|pkt_dts=58514456|pkt_dts_time=1950.481867|best_effort_timestamp=58514456|best_effort_timestamp_time=1950.481867|pkt_duration=1001|pkt_duration_time=0.033367|pkt_pos=90436594|pkt_size=N/A|width=468|height=360|pix_fmt=yuv420p|sample_aspect_ratio=1:1|pict_type=I|coded_picture_number=0|display_picture_number=0|interlaced_frame=0|top_field_first=0|repeat_pict=0
media_type=video|key_frame=1|pkt_pts=58618560|pkt_pts_time=1953.952000|pkt_dts=58618560|pkt_dts_time=1953.952000|best_effort_timestamp=58618560|best_effort_timestamp_time=1953.952000|pkt_duration=1001|pkt_duration_time=0.033367|pkt_pos=90620433|pkt_size=N/A|width=468|height=360|pix_fmt=yuv420p|sample_aspect_ratio=1:1|pict_type=I|coded_picture_number=0|display_picture_number=0|interlaced_frame=0|top_field_first=0|repeat_pict=0
media_type=video|key_frame=1|pkt_pts=58678620|pkt_pts_time=1955.954000|pkt_dts=58678620|pkt_dts_time=1955.954000|best_effort_timestamp=58678620|best_effort_timestamp_time=1955.954000|pkt_duration=1001|pkt_duration_time=0.033367|pkt_pos=90716787|pkt_size=N/A|width=468|height=360|pix_fmt=yuv420p|sample_aspect_ratio=1:1|pict_type=I|coded_picture_number=0|display_picture_number=0|interlaced_frame=0|top_field_first=0|repeat_pict=0
media_type=video|key_frame=1|pkt_pts=58738680|pkt_pts_time=1957.956000|pkt_dts=58738680|pkt_dts_time=1957.956000|best_effort_timestamp=58738680|best_effort_timestamp_time=1957.956000|pkt_duration=1001|pkt_duration_time=0.033367|pkt_pos=90850744|pkt_size=N/A|width=468|height=360|pix_fmt=yuv420p|sample_aspect_ratio=1:1|pict_type=I|coded_picture_number=0|display_picture_number=0|interlaced_frame=0|top_field_first=0|repeat_pict=0
media_type=video|key_frame=1|pkt_pts=58858800|pkt_pts_time=1961.960000|pkt_dts=58858800|pkt_dts_time=1961.960000|best_effort_timestamp=58858800|best_effort_timestamp_time=1961.960000|pkt_duration=1001|pkt_duration_time=0.033367|pkt_pos=91127772|pkt_size=N/A|width=468|height=360|pix_fmt=yuv420p|sample_aspect_ratio=1:1|pict_type=I|coded_picture_number=0|display_picture_number=0|interlaced_frame=0|top_field_first=0|repeat_pict=0
media_type=video|key_frame=1|pkt_pts=58918860|pkt_pts_time=1963.962000|pkt_dts=58918860|pkt_dts_time=1963.962000|best_effort_timestamp=58918860|best_effort_timestamp_time=1963.962000|pkt_duration=1001|pkt_duration_time=0.033367|pkt_pos=91240096|pkt_size=N/A|width=468|height=360|pix_fmt=yuv420p|sample_aspect_ratio=1:1|pict_type=I|coded_picture_number=0|display_picture_number=0|interlaced_frame=0|top_field_first=0|repeat_pict=0
media_type=video|key_frame=1|pkt_pts=58978920|pkt_pts_time=1965.964000|pkt_dts=58978920|pkt_dts_time=1965.964000|best_effort_timestamp=58978920|best_effort_timestamp_time=1965.964000|pkt_duration=1001|pkt_duration_time=0.033367|pkt_pos=91348324|pkt_size=N/A|width=468|height=360|pix_fmt=yuv420p|sample_aspect_ratio=1:1|pict_type=I|coded_picture_number=0|display_picture_number=0|interlaced_frame=0|top_field_first=0|repeat_pict=0
media_type=video|key_frame=1|pkt_pts=59369310|pkt_pts_time=1978.977000|pkt_dts=59369310|pkt_dts_time=1978.977000|best_effort_timestamp=59369310|best_effort_timestamp_time=1978.977000|pkt_duration=1001|pkt_duration_time=0.033367|pkt_pos=91954095|pkt_size=N/A|width=468|height=360|pix_fmt=yuv420p|sample_aspect_ratio=1:1|pict_type=I|coded_picture_number=0|display_picture_number=0|interlaced_frame=0|top_field_first=0|repeat_pict=0
media_type=video|key_frame=1|pkt_pts=59486427|pkt_pts_time=1982.880900|pkt_dts=59486427|pkt_dts_time=1982.880900|best_effort_timestamp=59486427|best_effort_timestamp_time=1982.880900|pkt_duration=1001|pkt_duration_time=0.033367|pkt_pos=92141139|pkt_size=N/A|width=468|height=360|pix_fmt=yuv420p|sample_aspect_ratio=1:1|pict_type=I|coded_picture_number=0|display_picture_number=0|interlaced_frame=0|top_field_first=0|repeat_pict=0
media_type=video|key_frame=1|pkt_pts=60090030|pkt_pts_time=2003.001000|pkt_dts=60090030|pkt_dts_time=2003.001000|best_effort_timestamp=60090030|best_effort_timestamp_time=2003.001000|pkt_duration=1001|pkt_duration_time=0.033367|pkt_pos=93027436|pkt_size=N/A|width=468|height=360|pix_fmt=yuv420p|sample_aspect_ratio=1:1|pict_type=I|coded_picture_number=0|display_picture_number=0|interlaced_frame=0|top_field_first=0|repeat_pict=0
media_type=video|key_frame=1|pkt_pts=60600540|pkt_pts_time=2020.018000|pkt_dts=60600540|pkt_dts_time=2020.018000|best_effort_timestamp=60600540|best_effort_timestamp_time=2020.018000|pkt_duration=1001|pkt_duration_time=0.033367|pkt_pos=93780969|pkt_size=N/A|width=468|height=360|pix_fmt=yuv420p|sample_aspect_ratio=1:1|pict_type=I|coded_picture_number=0|display_picture_number=0|interlaced_frame=0|top_field_first=0|repeat_pict=0
media_type=video|key_frame=1|pkt_pts=62282220|pkt_pts_time=2076.074000|pkt_dts=62282220|pkt_dts_time=2076.074000|best_effort_timestamp=62282220|best_effort_timestamp_time=2076.074000|pkt_duration=1001|pkt_duration_time=0.033367|pkt_pos=96271945|pkt_size=N/A|width=468|height=360|pix_fmt=yuv420p|sample_aspect_ratio=1:1|pict_type=I|coded_picture_number=0|display_picture_number=0|interlaced_frame=0|top_field_first=0|repeat_pict=0
media_type=video|key_frame=1|pkt_pts=62402340|pkt_pts_time=2080.078000|pkt_dts=62402340|pkt_dts_time=2080.078000|best_effort_timestamp=62402340|best_effort_timestamp_time=2080.078000|pkt_duration=1001|pkt_duration_time=0.033367|pkt_pos=96422248|pkt_size=N/A|width=468|height=360|pix_fmt=yuv420p|sample_aspect_ratio=1:1|pict_type=I|coded_picture_number=0|display_picture_number=0|interlaced_frame=0|top_field_first=0|repeat_pict=0
